<svg xmlns="http://www.w3.org/2000/svg" viewBox="0 0 21 20"><title>scissors-icon.svg</title>
<g id="Слой_2" data-name="Слой 2">
<g id="Layer_1" data-name="Layer 1"><g id="Page-1"><g id="Core">
<g id="content-cut"><path style="fill: #826550" id="Shape" d="M8,4A4,4,0,1,0,4,8a2.93,2.93,0,0,0,1.6-.4L8,10,5.6,12.4A2.93,2.93,0,0,0,4,12a4,4,0,1,0,4,4,2.93,2.93,0,0,0-.4-1.6L10,12l7,7h4L7.6,5.6A2.93,2.93,0,0,0,8,4ZM4,6A2,2,0,1,1,6,4,2,2,0,0,1,4,6ZM4,18a2,2,0,1,1,2-2,2,2,0,0,1-2,2Zm6-8.5a.5.5,0,1,1-.5.5.47.47,0,0,1,.5-.5ZM21,1H17L11,7l2,2,8-8Z"/></g></g></g></g></g></svg>