<svg xmlns="http://www.w3.org/2000/svg" viewBox="0 0 370 153"><style>.borodinski-logo__barbershop,.borodinski-logo__moustache{display:none}@media (min-width:768px){.borodinski-logo__barbershop{display:inline-block}}@media (min-width:1200px){.borodinski-logo__moustache{display:inline-block}}</style><g class="borodinski-logo"><path fill="#FFF" d="M-.001 73.238l5.729-5.727 5.727 5.73-5.73 5.726zm352.013.002l5.728-5.726 5.727 5.728-5.728 5.727z"/><g fill="#636466"><path d="M46.8 73.5h2.1v-8.3h3.3v-2.1h-5.4zM61.7 75V62.3c0-1.8-1.1-3.3-2.6-4.1.3.6.5 1.3.5 2v12.7c0 1.4-.6 2.6-1.7 3.5.9 1 1.7 2.1 1.7 3.7v14.1c0 2.5-2.1 4.6-4.6 4.6H41.5v2.1h15.6c2.5 0 4.6-2.1 4.6-4.6V82.2c0-1.6-.7-2.7-1.7-3.7 1.1-.8 1.7-2.1 1.7-3.5z"/><path d="M46.8 91.3h2.1V83h3.3v-2.1h-5.4z"/></g><g fill="#636466"><path d="M79.8 91.3h2.1V65.2h3.3v-2.1h-5.4z"/><path d="M92.1 58.3c.3.6.5 1.3.5 2v34c0 2.5-2.1 4.6-4.6 4.6H77c-.7 0-1.4-.2-2-.5.7 1.5 2.3 2.6 4.1 2.6h11.1c2.5 0 4.6-2.1 4.6-4.6v-34c-.1-1.9-1.2-3.4-2.7-4.1z"/></g><g fill="#636466"><path d="M112.8 73.5h2.1v-8.3h3.3v-2.1h-5.4zm12.3 9c1.6-.7 2.6-2.3 2.6-4.1V62.3c0-1.8-1.1-3.4-2.6-4.1.3.6.5 1.3.5 2v16.1c0 1.7-1 3.3-2.6 4.1l3.1 18.4h-5.7l.4 2.1h7.4l-3.1-18.4zm-9.4-1.6h-2.9v17.9h-5.3v2.1h7.4V83h1.1z"/></g><g fill="#636466"><path d="M144.8 91.3h2.1V65.2h3.3v-2.1h-5.4z"/><path d="M157.2 58.3c.3.6.5 1.3.5 2v34c0 2.5-2.1 4.6-4.6 4.6H142c-.7 0-1.4-.2-2-.5.7 1.5 2.3 2.6 4.1 2.6h11.1c2.5 0 4.6-2.1 4.6-4.6v-34c-.1-1.9-1.1-3.4-2.6-4.1z"/></g><g fill="#636466"><path d="M177.9 91.3h2V65.2h3.3v-2.1h-5.3z"/><path d="M190.2 58.3c.3.6.5 1.3.5 2v34c0 2.5-2.1 4.6-4.6 4.6h-13.6v2.1h15.6c2.5 0 4.6-2.1 4.6-4.6v-34c.1-1.9-1-3.4-2.5-4.1z"/></g><path fill="#636466" d="M211.2 57.8v41h-5.3v2.1h7.4V57.8z"/><g fill="#636466"><path d="M244.1 57.8v41h-5.9l.6 2.1h7.4V57.8zm-12.8 22.1v18.9H226v2.1h7.4V87.2z"/></g><g fill="#636466"><path d="M263.6 83h6.1v-2.1h-8.2c-.7 0-1.4-.2-2-.5.7 1.5 2.3 2.6 4.1 2.6zm2.8 2.7l-2.1.5v5.1h2.1zm10.3-27.4c.3.6.5 1.3.5 2V69l-5.4 1.2v2.6l7.5-1.7v-8.7c-.1-1.9-1.1-3.4-2.6-4.1z"/><path d="M276.7 76.1c.3.6.5 1.3.5 2v16.2c0 2.5-2.1 4.6-4.6 4.6h-11.1c-.7 0-1.4-.2-2-.5.7 1.5 2.3 2.6 4.1 2.6h11.1c2.5 0 4.6-2.1 4.6-4.6V80.1c-.1-1.8-1.1-3.3-2.6-4zm-12.4-13v10.4h2.1v-8.3h3.3v-2.1z"/></g><g fill="#636466"><path d="M298 80.9h-.7v17.9H292v2.1h7.4V85.4zm15.2-23.1h-2.8l-6.2 19.4 6.9 21.6h-6l.5 1.8.1.3h7.5l-6.9-21.6z"/></g><path fill="#636466" d="M330.5 57.8v41h-5.3v2.1h7.4V57.8zm31.1 25.102l5.727-5.728 2.051 2.05-5.727 5.729zm-351.922.099l5.727-5.727 2.05 2.05-5.727 5.728z"/><g fill="#FFF"><path d="M55.6 69c0 1.4-.6 2.6-1.7 3.5.9 1 1.7 2.1 1.7 3.7v14.1c0 2.5-2.1 4.6-4.6 4.6H35.4V51.7H51c2.5 0 4.6 2 4.6 4.6V69zm-7.4-9.9h-5.4v10.4h5.4V59.1zm0 17.8h-5.4v10.5h5.4V76.9zm35.9-25.2c2.5 0 4.6 2 4.6 4.6v34c0 2.5-2.1 4.6-4.6 4.6H73c-2.5 0-4.6-2.1-4.6-4.6v-34c0-2.5 2-4.6 4.6-4.6h11.1zm-2.9 7.4h-5.4v28.3h5.4V59.1zm33.5 35.7l-3-17.9h-2.8v17.9h-7.4V51.7h15.6c2.5 0 4.5 2 4.5 4.6v16.1c0 1.7-1 3.3-2.6 4.1l3.1 18.4h-7.4zm-.5-35.7h-5.4v10.4h5.4V59.1zm34.9-7.4c2.5 0 4.6 2 4.6 4.6v34c0 2.5-2.1 4.6-4.6 4.6H138c-2.5 0-4.6-2.1-4.6-4.6v-34c0-2.5 2-4.6 4.6-4.6h11.1zm-2.9 7.4h-5.4v28.3h5.4V59.1zm36-7.4c2.5 0 4.6 2 4.6 4.6v34c0 2.5-2.1 4.6-4.6 4.6h-15.6V51.7h15.6zm-2.9 7.4h-5.4v28.3h5.4V59.1zm20.6-7.4h7.4v43.1h-7.4V51.7zm40.3 0v43.1h-7.4L227.4 76v18.8H220V51.7h7.3l5.4 17.7V51.7h7.5zm28.4 17.8c2.5 0 4.6 2 4.6 4.6v16.2c0 2.5-2.1 4.6-4.6 4.6h-11.1c-2.5 0-4.6-2.1-4.6-4.6v-8.9l7.4-1.7v7.7h5.4V76.9h-8.2c-2.5 0-4.6-2-4.6-4.6v-16c0-2.5 2-4.6 4.6-4.6h11.1c2.5 0 4.6 2 4.6 4.6V65l-7.5 1.7v-7.6h-5.4v10.4h8.3zm31.6 3.7l6.9 21.6h-7.5l-.1-.2-5.5-17.7h-.7v17.9H286V51.7h7.4v17.8h.6l5.7-17.8h7.5l-7 21.5zm19-21.5h7.4v43.1h-7.4V51.7z"/></g></g><g class="borodinski-logo__barbershop" fill="#FFF"><path d="M119.9 11.4C127 9 127.6 0 120.5 0c-1.9 0-4.3 1.4-5.9 4.2L105 20.7c-.4.8-.9 1.4-1.4 2-2.5-3.4-1.7-8.5 1.7-10.7l-1.4-1.8c-7.5 4.8-5.3 18.5 7.2 18.5 10.7 0 15.6-12.7 8.8-17.3zM111.1 26c-2.1 0-3.8-.5-5.1-1.2.6-.7 1.2-1.6 1.8-2.5l6-10.4 1 .1c8.2 1.7 4.9 14-3.7 14zm3.8-16.2l2.9-4.9c2.6-4.5 5.9-1.8 4.1 1.5-1.4 2.5-3.4 3.3-7 3.4z"/><path d="M259.2 19l-.2.3c-2 2.3-4.3 4.2-6.5 5 .6-.9 1-1.9 1.5-2.7l3.9-6.7c3.3-5.6-2.1-7.5-5.7-4.3l.7-1.2h-3.6l-5.6 9.7-.2.3c-1.6 1.7-3.6 2.6-5.4 2.6l3.4-5.8c2.2-3.7.2-7.3-3.2-7.3-2.7 0-4.9 1.1-6.9 4.7l-1.7 3-1.5 2.5-.2.2c-2.6 3-5.1 5.3-6.6 5.3-.8 0-1.2-.5-.4-1.9l5.1-9c1.5-2.7.1-4.7-1.9-4.7-1.5 0-3.2.9-5 2.7l5.7-9.9h-3.6L211.4 19l-.2.2c-1.3 1.5-2.9 2.9-4.3 3.9 1.1-3.4.9-8.6 3.1-13.1l-2.7-1.4c-1.5 2-4.7 6.7-7.9 10.4l-.2.3c-2.6 3-5.1 5.3-6.6 5.3-.8 0-1.2-.5-.4-1.9l3.6-6.2c1.2-2.2.6-3.4-.5-4.8l-2-2.4c-.5-.7-.5-1.4.2-2.1l-1.8-2c-2 1.8-2.2 3.8-.9 5.5l.2.3c-1.6 2.2-3.7 5.2-6 8l-.2.3c-2.6 3-5.9 5.3-8.3 5.3-2.2 0-3.5-1.4-1.8-4.2l.3-.6c2.3 1 6.6.5 9.3-4.1l.5-.9c1.9-3.3.1-5.7-2.8-5.7s-5.2 1.5-6.7 4.1l-3.4 5.9-.2.2c-1.6 1.8-3.6 2.6-5.4 2.6l3.4-5.8c.9-1.6 1.3-2.9 1.3-4.1 0-1.8-1.2-3.2-3.2-3.2-.9 0-1.6.3-2.3.8l4.5-7.8h-3.6l-10 17.2-.2.2c-2.6 3-5.1 5.3-6.6 5.3-.8 0-1.2-.5-.4-1.9l3.6-6.2c1.2-2.2.6-3.4-.5-4.8l-2-2.4c-.5-.7-.5-1.4.2-2.1l-1.8-2c-2 1.8-2.2 3.8-.9 5.5l.3.4c-1.6 2.2-3.7 5.2-6 8l-.2.3c-2.6 3-5.1 5.3-6.6 5.3-.8 0-1.2-.5-.4-1.9l5.7-10.1h-2c.1-1.5-1.4-3.6-3.7-3.6-1.9 0-4.6 1.5-6.1 4.1l-5 8.6c-1.5 2.6-.4 5.1 2.4 5.1 1.4 0 3.2-.9 4.9-2.3.2 1.4 1.3 2.3 3.1 2.3 2.9 0 6.3-3.1 9.3-6.6 1.7-2 3-3.8 5.9-7.6l.5.6c.4.6.6 1.3.2 2l-3.8 6.5c-1.5 2.6-.4 5.1 2.4 5.1 2.1 0 4.3-1.5 6.5-3.7 0 2.4 1.8 3.8 4.1 3.8 2 0 4.3-1 6.1-3.3h.8c1.3 0 3.1-.5 4.7-1.4-.2 2.6 1.7 4.5 4.8 4.5 4 0 8-3.1 11-6.6 1.7-2 3-3.8 5.9-7.6l.5.6c.4.6.6 1.3.2 2l-3.8 6.5c-1.5 2.6-.4 5.1 2.4 5.1 2.9 0 6.3-3.1 9.3-6.6 2-2.3 3.8-4.8 5.1-6.5-1.4 3.7-.6 10.3-4 10.3-1.2 0-1.7-1.3-1.7-1.3l-2.2 1.2s.6 2.9 3.9 2.9c.3 0 .6 0 1-.1h.1c1.9-.2 3.7-1.1 5.5-2.4l-1.2 2.1h3.6l5.4-9.4c5.5-6.9 7.9-6 6.4-3.4l-4.6 8c-1.5 2.6-.4 5.1 2.4 5.1 2.1 0 4.4-1.6 6.6-3.7 0 4.5 6.3 5.4 10.1.6h.8c1.1 0 2.5-.3 3.8-.9l-6.5 11.2h3.6l10.6-18.5c4-5.4 6.5-3.4 5.5-1.8l-5.4 9.3c-.6 1-1.9 1.3-2.6 0l-2 1s.6 2.9 3.9 2.9h.2c5.2-.1 8.6-3.2 11.5-6.6-.7-.5-1.3-1-1.8-1.1zm-81-5c2.1-3.5 5.7-2.9 3.6.8l-.5.9c-1.7 2.9-4 2.8-5.3 2.4l2.2-4.1zm-45.6 5.6c-2.2 3.4-4.3 5-5.7 5-.8 0-1.2-.5-.4-1.9l5-8.7c1.9-3.3 5.7-2.5 4 .8l-2.9 4.8zm26.8 4.8c-.8 0-1.4-.5-1.4-1.4 0-.5.2-1.1.6-1.8l1.3-2.2c.3 1.5 1 2.9 2.3 3.7-.8 1.2-1.9 1.7-2.8 1.7zm3.7-3.4c-.9-.7-1.5-1.8-1.5-3.2 0-2.5 2.5-6.7 4.5-6.7.8 0 1.3.6 1.3 1.5 0 .6-.2 1.3-.7 2.1l-3.6 6.3zm73.1-1.8h-.2c-1.2 0-2.1 1-2.1 2.1 0 .4.1.9.3 1.2v.1c-1.7 2.9-5.7 2.3-3.6-1.4l2.7-4.7 1.7-2.9c2.5-4.2 5.9-2.6 3.8 1.1l-2.6 4.5z"/></g><g class="borodinski-logo__moustache"><path fill="#FFF" d="M167.9 123.8h1.4c5.4.3 9.7 1.7 12.4 4.7 2.7-3 7-4.5 12.5-4.7h1.3c12.1.8 17.6 9.5 27.3 13.2 1.4.5 3.2 1.2 4.8 1 2.5-.3 4.1-2.8 3.7-5.6-.3-3-3.3-5.6-6.6-4.2-.5.2-.8.5-1.2.8-.3.2-.5.8-1.2.6-.6-.5 0-1.2.3-1.7 1.1-1.9 2.9-3.2 6.1-3 5.6.4 10.7 5.3 9.8 12.8-1.9 11.2-12.1 14.1-24.2 15.2h-3.9c-12.5-.7-21.4-5.1-28.8-11-7.5 5.8-16.3 10.3-28.9 11h-3.9c-12.2-1.1-22.4-4-24.2-15.5-.7-8.2 4.2-12.2 9.8-12.6 3.1-.2 5 1.1 6.1 3 .3.5.8 1.2.3 1.7-.6.1-.9-.4-1.2-.6-.7-.7-1.5-1.2-2.8-1.2-3.9-.1-6.1 4.2-4.5 7.6.5 1.2 1.8 2.4 3.4 2.5 1.6.1 3.4-.5 4.8-1 1.5-.5 2.7-1.2 3.9-1.9 7.5-4.1 13.2-10.1 23.5-11.1z"/></g></svg>