<svg xmlns="http://www.w3.org/2000/svg" viewBox="0 0 57 97.68"><g data-name="Слой 2"><g data-name="Layer 1"><path fill="#826550" d="M51.12 15.24C50.73 9.79 50.51 4.39 48.6 0c-.76 0-1.53 7.31-2.28 10.92-1.48 7.14-3.71 8.28-4.44 8.28-.88-3.86-4.38-4.2-7.8-5.88a11.16 11.16 0 00-3.6-1.2 13.32 13.32 0 00-2 .12 13.32 13.32 0 00-2-.12 11.16 11.16 0 00-3.6 1.2c-3.42 1.64-6.94 2-7.8 5.88-.73 0-3-1.14-4.44-8.28C9.93 7.31 9.16 0 8.4 0 6.49 4.39 6.27 9.79 5.88 15.24 5 38.78 0 51.53 0 62.4c0 26.07 11.71 35.28 28.5 35.28S57 88.47 57 62.4c0-10.87-5-23.62-5.88-47.16zM34.44 25c-2.79 1.17-5.35-.71-5.88-.72h-.12c-.53 0-3.09 1.89-5.88.72-.78-3.58 2.4-4 5.94-3.91 3.55-.17 6.73.29 5.94 3.91z"/></g></g></svg>