<svg xmlns="http://www.w3.org/2000/svg" viewBox="0 0 141.67 139.54"><defs><style>.cls-1{fill:#fff}</style></defs><g id="Слой_2" data-name="Слой 2"><g id="Layer_2" data-name="Layer 2"><path class="cls-1" d="M71.83 21.46V1a1 1 0 00-2 0v20.46h1zm-26.06 6.98c.57-.35 1.15-.68 1.73-1L37.26 9.74a1 1 0 00-1.73 1zM10.5 34.73a1 1 0 00.36 1.36l17.69 10.27c.32-.58.65-1.16 1-1.73L11.87 34.36a1 1 0 00-1.37.37zm95.91-26.21a1 1 0 00-1.37.36l-10.8 18.6c.58.33 1.16.66 1.73 1l10.8-18.59a1 1 0 00-.36-1.37zm25.37 27.15a1 1 0 00.37-1.37 1 1 0 00-1.37-.36l-18.61 10.77c.34.56.67 1.14 1 1.73zM22.5 69.77v-1H1a1 1 0 000 2h21.53c-.01-.33-.03-.66-.03-1zm118.17-1h-21.53v2h21.53a1 1 0 000-2zm-9.87 34.68l-17.68-10.27c-.32.58-.65 1.16-1 1.73l17.68 10.27a1 1 0 00.5.13 1 1 0 00.5-1.86zm-120.92.42a1 1 0 00-.36 1.37 1 1 0 00.87.5.93.93 0 00.5-.14L29.5 94.84c-.35-.57-.67-1.15-1-1.74zm86.02 7.23c-.57.35-1.15.68-1.74 1l10.24 17.7a1 1 0 00.87.5.93.93 0 00.5-.14 1 1 0 00.36-1.36zm-61.01 18.55a1 1 0 00.37 1.37 1 1 0 001.36-.36l10.81-18.6c-.59-.33-1.17-.65-1.73-1zm34.94-11.57v20.46a1 1 0 002 0v-20.46h-1zm34.91-66.19a1.5 1.5 0 10-1.5-2.6L74.81 65.74a5.65 5.65 0 00-8 0L46.52 53.91a1.5 1.5 0 00-1.52 2.6l20.36 11.82a5.66 5.66 0 1011.14 1.44 5.55 5.55 0 00-.19-1.43zm-29.4 14.46v-.08zm.4.59zm-9.78 0zm.42-.62v.06zm4.45 6.17a2.67 2.67 0 112.67-2.67 2.67 2.67 0 01-2.67 2.62z"/></g></g></svg>