<svg xmlns="http://www.w3.org/2000/svg" width="15" height="17"><defs><filter id="filter" x="503" y="388" width="15" height="17" filterUnits="userSpaceOnUse"><feFlood result="flood"/><feComposite result="composite" operator="in" in2="SourceGraphic"/><feBlend result="blend" in2="SourceGraphic"/></filter><style>.cls-1{fill:#d1d1d1;fill-rule:evenodd;filter:url(#filter)}</style></defs><path id="Locked_2" data-name="Locked 2" class="cls-1" d="M516 393.451a5.5 5.5 0 00-5.611-5.451 5.366 5.366 0 00-5.453 5.453h-.63a1 1 0 00-1.258 1.079v9.05a1.048 1.048 0 001.139 1.418h12.568a1.382 1.382 0 001.245-1.42v-8.61a1.343 1.343 0 00-1.247-1.532zm-1.187-.013a4.284 4.284 0 00-8.564 0h8.564zm-4.645 2.036a2.009 2.009 0 011.962 2.053 2.054 2.054 0 01-1.263 1.919c-.1.041.661 3.541.661 3.541l-2.64.019a20.682 20.682 0 00.647-3.535 2.05 2.05 0 01-1.328-1.944 2.009 2.009 0 011.965-2.053z" transform="translate(-503 -388)"/></svg>