<svg xmlns="http://www.w3.org/2000/svg" width="14.969" height="15"><defs><filter id="filter" x="503.031" y="314" width="14.969" height="15" filterUnits="userSpaceOnUse"><feFlood result="flood"/><feComposite result="composite" operator="in" in2="SourceGraphic"/><feBlend result="blend" in2="SourceGraphic"/></filter><style>.cls-1{fill:#d1d1d1;fill-rule:evenodd;filter:url(#filter)}</style></defs><path id="User_copy_2" data-name="User copy 2" class="cls-1" d="M509.868 314.227a1.577 1.577 0 00-.721.269 1.75 1.75 0 00-.786.046 1.83 1.83 0 00-1.18 1.619c-.04.395-.05 1.5-.023 2.1.08.356-.2.356-.2.356-.5-.033-.278 1.515-.278 1.515a.814.814 0 00.721.867 3.177 3.177 0 001.287 1.526s0 .616.018 1.072c-.076-.037.26 1.165-2.062 1.5s-2.766 1.077-3.2 1.489-.421 2.41-.421 2.41L518 329s-.112-2-.549-2.417-.915-1.152-3.236-1.489c-2.257-.321-1.886-1.507-1.9-1.578 0-.179.028-.941.028-.941a3.918 3.918 0 001.145-1.61 1.322 1.322 0 00.866-.8s.165-1.564-.364-1.556c0 0-.251.08-.171-.276a9.6 9.6 0 00.014-1.859c-.041-.395.02-1.523-.822-1.681a5.162 5.162 0 00-.931-.041c-.281-.039-.615-.755-1.137-.755z" transform="translate(-503.031 -314)"/></svg>